# xmcd
#
# Track frame offsets:
#	150
#	19703
#	36565
#	56124
#	71882
#	90164
#	105172
#	120959
#	135031
#	156135
#	175688
#	192550
#	212109
#	227867
#	246149
#	261157
#	276944
#	291016
#
# Disc length: 4161 seconds
#
# Revision: 1
# Processed by: cddbd v1.5.2PL0 Copyright (c) Steve Scherf et al.
# Submitted via: audiograbber 1.83.01
#
DISCID=f9103f12
DTITLE=Various Artist - 0712
DYEAR=2007
DGENRE=karaoke
TTITLE0=For These Times - Martina McBride
TTITLE1=Let it Go - Tim McGraw
TTITLE2=Comin' Home - Tim McGraw
TTITLE3=Our Song - Taylor Swift
TTITLE4=Stealing Cinderella - Chuck Wilson
TTITLE5=It's Good to Be Us - Bucky covington
TTITLE6=More Like Her - Miranda Lambert
TTITLE7=What Kinda Gone - Chris Cagle
TTITLE8=Letter To Me - Brad Paisley
TTITLE9=For These Times - Martina McBride (vocal)
TTITLE10=Let It Go - Tim McGraw (vocal)
TTITLE11=Comin' Home - Tim McGraw (vocal)
TTITLE12=Our Song - Taylor Swift (vocal)
TTITLE13=Stealling Cinderella - Chuck Wilson (vocal)
TTITLE14=It's Good To Be Us - Bucky Covington (vocal)
TTITLE15=More Like Her - Miranda Lambert (vocal)
TTITLE16=What Kinda Gone - Chris Cagle (vocal)
TTITLE17=Letter To Me - Brad Paisley (vocal)
EXTD=
EXTT0=
EXTT1=
EXTT2=
EXTT3=
EXTT4=
EXTT5=
EXTT6=
EXTT7=
EXTT8=
EXTT9=
EXTT10=
EXTT11=
EXTT12=
EXTT13=
EXTT14=
EXTT15=
EXTT16=
EXTT17=
PLAYORDER=
